<?xml version="1.0" encoding="UTF-8"?>
<svg id="Layer_1" data-name="Layer 1" xmlns="http://www.w3.org/2000/svg" xmlns:xlink="http://www.w3.org/1999/xlink" viewBox="0 0 958.21 293.83">
  <defs>
    <style>
      .cls-1 {
        fill: none;
      }

      .cls-1, .cls-2 {
        stroke-width: 0px;
      }

      .cls-3 {
        font-family: JostRoman-Light, Jost;
        font-size: 115.11px;
        font-variation-settings: 'wght' 300;
        font-weight: 300;
        fill: #66bb6a;
      }

      .cls-4 {
        clip-path: url(#clippath-1);
      }

      .cls-5 {
        clip-path: url(#clippath);
      }

      .cls-2 {
        fill: #66bb6a;
      }
    </style>
    <clipPath id="clippath">
      <rect class="cls-1" x="16.67" y="6.43" width="462.82" height="270.97"/>
    </clipPath>
    <clipPath id="clippath-1">
      <rect class="cls-1" x="479.49" y="6.43" width="462.82" height="270.97"/>
    </clipPath>
  </defs>
  <path class="cls-2" d="m724.8,192.1s2.05-81.15,2.21-82.14c17.44.31,43.45.44,61.09.75.47,36.13.81,77.76-1.02,114.68.11-.04,4.15-.03,5.11,0,0,0,6.19-103.92,6.23-113.04.01-3.68.84-8.6-2.42-9.59-1.16-.35-4.53-.82-5.75-.83-21.84-.25-43.14-.99-64.51-.67-1.32.02-2.66.14-3.97.36-3.08.53-5.24,2.92-5.5,6.04-.09,1.04,5.27,82.9,5.39,84.25,0,0,2.46.15,3.15.18Z"/>
  <text class="cls-3" transform="translate(287.21 276.87)"><tspan x="0" y="0">iRoomie</tspan></text>
  <g>
    <g id="_Mirror_Repeat_" data-name="&amp;lt;Mirror Repeat&amp;gt;">
      <g class="cls-5">
        <path class="cls-2" d="m16.67,277.4C192.28,229.51,354.88,135.28,483.42,6.43c0,0,7.14,7.26,7.14,7.26C359.68,139.82,192.19,236.11,16.67,277.4h0Z"/>
      </g>
    </g>
    <g id="_Mirror_Repeat_-2" data-name="&amp;lt;Mirror Repeat&amp;gt;">
      <g class="cls-4">
        <path class="cls-2" d="m942.05,278.37c-177.29-45.17-342.24-137.32-473.63-264.68,0,0,7.14-7.26,7.14-7.26,96.4,96.46,211.76,173.87,337.63,226.46,41.99,17.6,85.16,32.44,129.12,44.52,0,0-.26.97-.26.97h0Z"/>
      </g>
    </g>
  </g>
</svg>